<?xml version="1.0"?>
<svg xmlns="http://www.w3.org/2000/svg" xmlns:xlink="http://www.w3.org/1999/xlink" xmlns:svgjs="http://svgjs.com/svgjs" version="1.1" width="512" height="512" x="0" y="0" viewBox="0 0 512.001 512.001" style="enable-background:new 0 0 512 512" xml:space="preserve" class=""><g><g xmlns="http://www.w3.org/2000/svg" id="XMLID_83_"><path id="XMLID_85_" d="m493.112 428h-1.112v-199.069l17.028-17.028c3.905-3.905 3.905-10.237 0-14.143l-42.427-42.427c-3.905-3.905-10.237-3.905-14.143 0l-8.458 8.459v-153.792c0-5.523-4.477-10-10-10h-133c-5.523 0-10 4.477-10 10s4.477 10 10 10h123v163.792l-72.211 72.211h-224.894c-5.523 0-10 4.477-10 10s4.477 10 10 10h204.894l-43.995 43.995h-160.899c-5.523 0-10 4.477-10 10s4.477 10 10 10h140.899l-15.206 15.206s-.002.006-.003.007c-.864.864-1.575 1.889-2.08 3.039l-30.671 69.75h-131.834v-408h123c5.523 0 10-4.477 10-10s-4.477-10-10-10h-133c-5.523 0-10 4.477-10 10v154.051c-26.646 1.055-48 23.05-48 49.949v126.833 87.167h-1.111c-10.415 0-18.889 8.474-18.889 18.89 0 35.902 29.208 65.11 65.111 65.11h381.779c35.902 0 65.111-29.209 65.111-65.111 0-10.415-8.474-18.889-18.889-18.889zm-33.582-251.453 28.285 28.285-185.728 185.727-28.285-28.285zm12.47 72.384v179.069h-28v-151.069zm-48 48v131.069h-150.054l32.167-14.149c1.104-.485 2.141-1.175 3.045-2.078zm-161.072 82.754 21.749 21.749-38.817 17.069zm-222.928-38.851v-126.834c0-15.869 12.388-28.892 28-29.926v243.926h-28zm406.89 151.166h-381.779c-24.502 0-44.504-19.638-45.097-44h471.974c-.593 24.363-20.595 44-45.098 44z" fill="#f8f8f8" data-original="#000000" style="" class=""/><path id="XMLID_393_" d="m126.895 192.007c-5.523 0-10 4.477-10 10s4.477 10 10 10h83.377c5.523 0 10-4.477 10-10s-4.477-10-10-10z" fill="#f8f8f8" data-original="#000000" style="" class=""/><path id="XMLID_394_" d="m286.958 137.999c0-5.523-4.477-10-10-10h-150.063c-5.523 0-10 4.477-10 10s4.477 10 10 10h150.063c5.523 0 10-4.477 10-10z" fill="#f8f8f8" data-original="#000000" style="" class=""/><path id="XMLID_395_" d="m395.105 137.999c0-5.523-4.477-10-10-10h-52.146c-5.523 0-10 4.477-10 10s4.477 10 10 10h52.146c5.523 0 10-4.477 10-10z" fill="#f8f8f8" data-original="#000000" style="" class=""/><path id="XMLID_396_" d="m126.895 84.003h38.132c5.523 0 10-4.477 10-10s-4.477-10-10-10h-38.132c-5.523 0-10 4.477-10 10s4.477 10 10 10z" fill="#f8f8f8" data-original="#000000" style="" class=""/><path id="XMLID_751_" d="m211.027 74.003c0 5.523 4.477 10 10 10h164.078c5.523 0 10-4.477 10-10s-4.477-10-10-10h-164.078c-5.523 0-10 4.477-10 10z" fill="#f8f8f8" data-original="#000000" style="" class=""/><path id="XMLID_752_" d="m256 20c2.63 0 5.21-1.07 7.07-2.93s2.93-4.44 2.93-7.07-1.07-5.21-2.93-7.07-4.44-2.93-7.07-2.93-5.21 1.07-7.07 2.93c-1.86 1.861-2.93 4.44-2.93 7.07s1.07 5.21 2.93 7.07 4.44 2.93 7.07 2.93z" fill="#f8f8f8" data-original="#000000" style="" class=""/><path id="XMLID_765_" d="m266.272 212.007h92.76c5.523 0 10-4.477 10-10s-4.477-10-10-10h-92.76c-5.523 0-10 4.477-10 10s4.477 10 10 10z" fill="#f8f8f8" data-original="#000000" style="" class=""/></g></g></svg>
