<svg id="Capa_1" enable-background="new 0 0 512 512" height="512" viewBox="0 0 512 512" width="512" xmlns="http://www.w3.org/2000/svg"><g><g><g><path d="m512 469.15v42.85h-109.71l-13.29-15h-268l-11.29 15h-109.71v-42.85c0-59.58 49.93-117.02 82.89-141.75h346.22c32.96 24.73 82.89 82.17 82.89 141.75z" fill="#48588b"/></g></g><path d="m512 469.15v42.85h-109.71l-13.29-15h-133v-169.6h173.11c32.96 24.73 82.89 82.17 82.89 141.75z" fill="#3c4a83"/><path d="m365.71 292.57.04 21.76h-219.5l.04-21.76-36.58-109.71s29.47-29.58 61.95-62.19h168.68c32.48 32.61 61.95 62.19 61.95 62.19z" fill="#3c4a83"/><path d="m365.71 292.57.04 21.76h-109.75v-193.66h84.34c32.48 32.61 61.95 62.19 61.95 62.19z" fill="#2a386b"/><path d="m329.14 120.67v98.76c0 20.19-8.18 38.48-21.42 51.72-13.24 13.23-31.52 21.42-51.72 21.42-40.4 0-73.14-32.75-73.14-73.14v-98.76z" fill="#f9c4b9"/><path d="m329.14 120.67v98.76c0 20.19-8.18 38.48-21.42 51.72-13.24 13.23-31.52 21.42-51.72 21.42v-171.9z" fill="#ffb19e"/><path d="m402.29 182.86c-43.35-32.51-94.82-48.76-146.29-48.76s-102.94 16.25-146.29 48.76l15.06-75.28c6.25-31.28 23.11-58.17 46.39-77.25 23.26-19.07 52.94-30.33 84.84-30.33 63.79 0 118.72 45.03 131.23 107.58z" fill="#48588b"/><path d="m402.29 182.86c-43.35-32.51-94.82-48.76-146.29-48.76v-134.1c63.79 0 118.72 45.03 131.23 107.58z" fill="#3c4a83"/><path d="m434.17 292.57-31.88 219.43h-292.58l-31.88-219.43z" fill="#f3f6ff"/><path d="m434.17 292.57-31.88 219.43h-146.29v-219.43z" fill="#cddbf9"/><path d="m292.57 402.29c0 20.19-16.37 36.57-36.57 36.57s-36.57-16.38-36.57-36.57c0-20.2 16.37-36.58 36.57-36.58s36.57 16.38 36.57 36.58z" fill="#60e2f4"/><path d="m292.57 402.29c0 20.19-16.37 36.57-36.57 36.57v-73.15c20.2 0 36.57 16.38 36.57 36.58z" fill="#29c5ec"/></g></svg>