<?xml version="1.0"?>
<svg xmlns="http://www.w3.org/2000/svg" xmlns:xlink="http://www.w3.org/1999/xlink" xmlns:svgjs="http://svgjs.com/svgjs" version="1.1" width="512" height="512" x="0" y="0" viewBox="0 0 24 24" style="enable-background:new 0 0 512 512" xml:space="preserve" class=""><g><path xmlns="http://www.w3.org/2000/svg" d="m12 0c-6.617 0-12 5.383-12 12s5.383 12 12 12 12-5.383 12-12-5.383-12-12-12zm4 17h-8c-.552 0-1-.448-1-1s.448-1 1-1h8c.552 0 1 .448 1 1s-.448 1-1 1zm0-4h-8c-.552 0-1-.448-1-1s.448-1 1-1h8c.552 0 1 .448 1 1s-.448 1-1 1zm0-4h-8c-.552 0-1-.448-1-1s.448-1 1-1h8c.552 0 1 .448 1 1s-.448 1-1 1z" fill="#f8f8f8" data-original="#000000" style="" class=""/></g></svg>
