<?xml version="1.0"?>
<svg xmlns="http://www.w3.org/2000/svg" xmlns:xlink="http://www.w3.org/1999/xlink" xmlns:svgjs="http://svgjs.com/svgjs" version="1.1" width="512" height="512" x="0" y="0" viewBox="0 0 24 24" style="enable-background:new 0 0 512 512" xml:space="preserve" class=""><g><path xmlns="http://www.w3.org/2000/svg" d="m11 17.5h-3c-.276 0-.5-.224-.5-.5s.224-.5.5-.5h3c.276 0 .5.224.5.5s-.224.5-.5.5z" fill="#f8f8f8" data-original="#000000" style="" class=""/><path xmlns="http://www.w3.org/2000/svg" d="m11 20h-2c-.827 0-1.5-.673-1.5-1.5v-3c0-.827.673-1.5 1.5-1.5h2c.276 0 .5.224.5.5s-.224.5-.5.5h-2c-.276 0-.5.225-.5.5v3c0 .275.224.5.5.5h2c.276 0 .5.224.5.5s-.224.5-.5.5z" fill="#f8f8f8" data-original="#000000" style="" class=""/><path xmlns="http://www.w3.org/2000/svg" d="m5.5 20c-.276 0-.5-.224-.5-.5v-2.882l-.553 1.105c-.17.338-.725.338-.895 0l-.552-1.105v2.882c0 .276-.224.5-.5.5s-.5-.224-.5-.5v-5c0-.231.16-.434.385-.486.224-.06.458.056.562.263l1.053 2.105 1.053-2.105c.103-.208.337-.323.562-.263.225.052.385.255.385.486v5c0 .276-.224.5-.5.5z" fill="#f8f8f8" data-original="#000000" style="" class=""/><path xmlns="http://www.w3.org/2000/svg" d="m16 20c-.172 0-.337-.09-.429-.243l-2.071-3.452v3.195c0 .276-.224.5-.5.5s-.5-.224-.5-.5v-5c0-.225.15-.422.367-.481.215-.061.447.032.562.225l2.071 3.452v-3.196c0-.276.224-.5.5-.5s.5.224.5.5v5c0 .225-.15.422-.367.481-.044.013-.089.019-.133.019z" fill="#f8f8f8" data-original="#000000" style="" class=""/><path xmlns="http://www.w3.org/2000/svg" d="m20.5 20h-1c-.827 0-1.5-.673-1.5-1.5v-4c0-.276.224-.5.5-.5s.5.224.5.5v4c0 .275.224.5.5.5h1c.276 0 .5-.225.5-.5v-4c0-.276.224-.5.5-.5s.5.224.5.5v4c0 .827-.673 1.5-1.5 1.5z" fill="#f8f8f8" data-original="#000000" style="" class=""/><path xmlns="http://www.w3.org/2000/svg" d="m12 7c-1.654 0-3-1.346-3-3s1.346-3 3-3 3 1.346 3 3-1.346 3-3 3zm0-5c-1.103 0-2 .897-2 2s.897 2 2 2 2-.897 2-2-.897-2-2-2z" fill="#f8f8f8" data-original="#000000" style="" class=""/><path xmlns="http://www.w3.org/2000/svg" d="m21.5 23h-19c-1.378 0-2.5-1.121-2.5-2.5v-8c0-1.379 1.122-2.5 2.5-2.5h19c1.378 0 2.5 1.121 2.5 2.5v8c0 1.379-1.122 2.5-2.5 2.5zm-19-12c-.827 0-1.5.673-1.5 1.5v8c0 .827.673 1.5 1.5 1.5h19c.827 0 1.5-.673 1.5-1.5v-8c0-.827-.673-1.5-1.5-1.5z" fill="#f8f8f8" data-original="#000000" style="" class=""/><path xmlns="http://www.w3.org/2000/svg" d="m6.5 11c-.07 0-.141-.015-.209-.046-.251-.116-.36-.413-.245-.664l3-6.5c.116-.25.412-.359.664-.244.25.116.36.413.244.664l-3 6.5c-.084.183-.266.29-.454.29z" fill="#f8f8f8" data-original="#000000" style="" class=""/><path xmlns="http://www.w3.org/2000/svg" d="m17.5 11c-.189 0-.37-.107-.455-.29l-3-6.5c-.116-.251-.006-.548.245-.664.252-.116.548-.006.664.244l3 6.5c.116.251.006.548-.245.664-.067.031-.139.046-.209.046z" fill="#f8f8f8" data-original="#000000" style="" class=""/></g></svg>
