<svg id="Capa_1" enable-background="new 0 0 512 512" height="512" viewBox="0 0 512 512" width="512" xmlns="http://www.w3.org/2000/svg" xmlns:xlink="http://www.w3.org/1999/xlink"><linearGradient id="SVGID_1_" gradientUnits="userSpaceOnUse" x1="256" x2="256" y1="512" y2="0"><stop offset="0" stop-color="#00b59c"/><stop offset="1" stop-color="#9cffac"/></linearGradient><g><g><path d="m436 81.621c-83.027 0-169.071-76.961-169.923-77.732-5.719-5.185-14.436-5.185-20.154 0-.857.777-86.675 77.732-169.923 77.732-8.284 0-15 6.716-15 15v179.638c0 145.524 108.236 203.674 189.65 234.755 1.723.658 3.536.986 5.35.986s3.627-.329 5.35-.986c81.414-31.081 189.65-89.232 189.65-234.755v-179.638c0-8.284-6.716-15-15-15zm-15 194.638c0 122.776-87.002 174.132-165 204.66-77.998-30.528-165-81.884-165-204.66v-165.308c72.231-6.318 139.96-55.926 165-76.284 25.04 20.357 92.769 69.965 165 76.284zm-270-20.259c0 57.897 47.103 105 105 105s105-47.103 105-105-47.103-105-105-105-105 47.103-105 105zm180 0c0 41.355-33.645 75-75 75s-75-33.645-75-75 33.645-75 75-75 75 33.645 75 75zm-94.394 4.393c-5.857-5.858-15.355-5.858-21.213 0s-5.858 15.355 0 21.213l15 15c2.929 2.929 6.768 4.394 10.607 4.394s7.678-1.464 10.606-4.394l45-45c5.858-5.858 5.858-15.355 0-21.213-5.857-5.858-15.355-5.858-21.213 0l-34.393 34.393z" fill="url(#SVGID_1_)"/></g></g></svg>